HIERARCHY
ROOT hips
{
  OFFSET 0 10.6860622 2.3727825e-15
  CHANNELS 6 Xposition Yposition Zposition Yrotation Xrotation Zrotation
  JOINT leftUpperLeg
  {
    OFFSET 0.6642549969 -0.9402397400000004 0
    CHANNELS 3 Yrotation Xrotation Zrotation
    JOINT leftLowerLeg
    {
      OFFSET 0 -3.997221335632195 0
      CHANNELS 3 Yrotation Xrotation Zrotation
      JOINT leftFoot
      {
        OFFSET -0.13777839790000004 -4.6145792000000005 -0.22186036399999998
        CHANNELS 3 Yrotation Xrotation Zrotation
        JOINT leftToes
        {
          OFFSET -0.03777410834999995 -0.9130806927000008 0.85230013
          CHANNELS 3 Yrotation Xrotation Zrotation
          End Site
          {
            OFFSET -0.03777410834999995 -0.9130806927000008 0.85230013
          }
        }
      }
    }
  }
  JOINT rightUpperLeg
  {
    OFFSET -0.6642778626 -0.9402397400000004 0
    CHANNELS 3 Yrotation Xrotation Zrotation
    JOINT rightLowerLeg
    {
      OFFSET 0 -3.997221452859387 0
      CHANNELS 3 Yrotation Xrotation Zrotation
      JOINT rightFoot
      {
        OFFSET 0.1377926176 -4.6145792000000005 -0.22185782299999995
        CHANNELS 3 Yrotation Xrotation Zrotation
        JOINT rightToes
        {
          OFFSET 0.037780746850000047 -0.9130806927000008 0.85230167
          CHANNELS 3 Yrotation Xrotation Zrotation
          End Site
          {
            OFFSET 0.037780746850000047 -0.9130806927000008 0.85230167
          }
        }
      }
    }
  }
  JOINT spine
  {
    OFFSET 0 0.13988381660000015 0
    CHANNELS 3 Yrotation Xrotation Zrotation
    JOINT chest
    {
      OFFSET 0 0.6191039003973773 0
      CHANNELS 3 Yrotation Xrotation Zrotation
      JOINT upperChest
      {
        OFFSET 0 0.9855186130586943 0
        CHANNELS 3 Yrotation Xrotation Zrotation
        JOINT leftShoulder
        {
          OFFSET 0.1807663869 1.5087829790000005 0
          CHANNELS 3 Yrotation Xrotation Zrotation
          JOINT leftUpperArm
          {
            OFFSET 0.5985063006419806 0 0
            CHANNELS 3 Yrotation Xrotation Zrotation
            JOINT leftLowerArm
            {
              OFFSET 2.2993332369501065 0 0
              CHANNELS 3 Yrotation Xrotation Zrotation
              JOINT leftHand
              {
                OFFSET 2.395047042602395 0 0
                CHANNELS 3 Yrotation Xrotation Zrotation
                JOINT leftIndexProximal
                {
                  OFFSET 0.5766295810000004 0.04556643899499946 0.17265095988184
                  CHANNELS 3 Yrotation Xrotation Zrotation
                  JOINT leftIndexIntermediate
                  {
                    OFFSET 0.2957229000000008 -0.019352197700001517 -0.007932640616999987
                    CHANNELS 3 Yrotation Xrotation Zrotation
                    JOINT leftIndexDistal
                    {
                      OFFSET 0.19008243099999922 -0.012484908149998475 -0.002786250786000012
                      CHANNELS 3 Yrotation Xrotation Zrotation
                      End Site
                      {
                        OFFSET 0.19008243099999922 -0.012484908149998475 -0.002786250786000012
                      }
                    }
                  }
                }
                JOINT leftMiddleProximal
                {
                  OFFSET 0.5834975091000001 0.0524350405149987 0.02204081888183999
                  CHANNELS 3 Yrotation Xrotation Zrotation
                  JOINT leftMiddleIntermediate
                  {
                    OFFSET 0.33880573540000003 -0.019871473270000717 -0.00000971183179999946
                    CHANNELS 3 Yrotation Xrotation Zrotation
                    JOINT leftMiddleDistal
                    {
                      OFFSET 0.20676022730000088 -0.012221336379999448 0.0001471936708000235
                      CHANNELS 3 Yrotation Xrotation Zrotation
                      End Site
                      {
                        OFFSET 0.20676022730000088 -0.012221336379999448 0.0001471936708000235
                      }
                    }
                  }
                }
                JOINT leftLittleProximal
                {
                  OFFSET 0.5344154683999995 -0.012880921405001189 -0.24414037221816004
                  CHANNELS 3 Yrotation Xrotation Zrotation
                  JOINT leftLittleIntermediate
                  {
                    OFFSET 0.21758961730000093 -0.011650919939999227 0.011893592810000034
                    CHANNELS 3 Yrotation Xrotation Zrotation
                    JOINT leftLittleDistal
                    {
                      OFFSET 0.1475273964999999 -0.008152365682999818 0.006001092492999946
                      CHANNELS 3 Yrotation Xrotation Zrotation
                      End Site
                      {
                        OFFSET 0.1475273964999999 -0.008152365682999818 0.006001092492999946
                      }
                    }
                  }
                }
                JOINT leftRingProximal
                {
                  OFFSET 0.5799399463000003 0.026911854694997794 -0.12150566991816003
                  CHANNELS 3 Yrotation Xrotation Zrotation
                  JOINT leftRingIntermediate
                  {
                    OFFSET 0.26167887460000006 -0.013480186499999602 0.010996293000000053
                    CHANNELS 3 Yrotation Xrotation Zrotation
                    JOINT leftRingDistal
                    {
                      OFFSET 0.17667108799999987 -0.008990287899999228 0.0055541023999999065
                      CHANNELS 3 Yrotation Xrotation Zrotation
                      End Site
                      {
                        OFFSET 0.17667108799999987 -0.008990287899999228 0.0055541023999999065
                      }
                    }
                  }
                }
                JOINT leftThumbProximal
                {
                  OFFSET 0.11018806699999972 -0.09448718900500053 0.17047963138184
                  CHANNELS 3 Yrotation Xrotation Zrotation
                  JOINT leftThumbIntermediate
                  {
                    OFFSET 0.31062601459999983 -0.08126270900000132 0.15443142000000007
                    CHANNELS 3 Yrotation Xrotation Zrotation
                    JOINT leftThumbDistal
                    {
                      OFFSET 0.21627175790000086 -0.08833193599999878 0.018771167799999988
                      CHANNELS 3 Yrotation Xrotation Zrotation
                      End Site
                      {
                        OFFSET 0.21627175790000086 -0.08833193599999878 0.018771167799999988
                      }
                    }
                  }
                }
              }
            }
          }
        }
        JOINT neck
        {
          OFFSET 0 1.5463305265074576 0
          CHANNELS 3 Yrotation Xrotation Zrotation
          JOINT head
          {
            OFFSET 0 0.8456443600000344 0
            CHANNELS 3 Yrotation Xrotation Zrotation
            JOINT leftEye
            {
              OFFSET 0.30408573140000006 0.5104519199999995 0.1276382305
              CHANNELS 3 Yrotation Xrotation Zrotation
              End Site
              {
                OFFSET 0.30408573140000006 0.5104519199999995 0.1276382305
              }
            }
            JOINT rightEye
            {
              OFFSET -0.30409491089999996 0.5104519199999995 0.1276379445
              CHANNELS 3 Yrotation Xrotation Zrotation
              End Site
              {
                OFFSET -0.30409491089999996 0.5104519199999995 0.1276379445
              }
            }
            JOINT jaw
            {
              OFFSET -3.155239131000001e-7 -0.11984121820000082 0.60178107
              CHANNELS 3 Yrotation Xrotation Zrotation
              End Site
              {
                OFFSET -3.155239131000001e-7 -0.11984121820000082 0.60178107
              }
            }
          }
        }
        JOINT rightShoulder
        {
          OFFSET -0.1807303465 1.5087829790000005 0
          CHANNELS 3 Yrotation Xrotation Zrotation
          JOINT rightUpperArm
          {
            OFFSET -0.5985063796536958 0 0
            CHANNELS 3 Yrotation Xrotation Zrotation
            JOINT rightLowerArm
            {
              OFFSET -2.2993322059002854 0 0
              CHANNELS 3 Yrotation Xrotation Zrotation
              JOINT rightHand
              {
                OFFSET -2.395045314457259 0 0
                CHANNELS 3 Yrotation Xrotation Zrotation
                JOINT rightIndexProximal
                {
                  OFFSET -0.5764487688300002 0.0441371204405987 0.17361932004999997
                  CHANNELS 3 Yrotation Xrotation Zrotation
                  JOINT rightIndexIntermediate
                  {
                    OFFSET -0.29573011380000047 -0.01934826376999843 -0.007698921482999974
                    CHANNELS 3 Yrotation Xrotation Zrotation
                    JOINT rightIndexDistal
                    {
                      OFFSET -0.19008373999999884 -0.012503266380000655 -0.0026365778999999897
                      CHANNELS 3 Yrotation Xrotation Zrotation
                      End Site
                      {
                        OFFSET -0.19008373999999884 -0.012503266380000655 -0.0026365778999999897
                      }
                    }
                  }
                }
                JOINT rightMiddleProximal
                {
                  OFFSET -0.5834852037300005 0.05211639405060153 0.02307162440000001
                  CHANNELS 3 Yrotation Xrotation Zrotation
                  JOINT rightMiddleIntermediate
                  {
                    OFFSET -0.33880114510000003 -0.019952774050000954 0.0002455003561999819
                    CHANNELS 3 Yrotation Xrotation Zrotation
                    JOINT rightMiddleDistal
                    {
                      OFFSET -0.20675694929999955 -0.012273788999999091 0.00030209124000002766
                      CHANNELS 3 Yrotation Xrotation Zrotation
                      End Site
                      {
                        OFFSET -0.20675694929999955 -0.012273788999999091 0.00030209124000002766
                      }
                    }
                  }
                }
                JOINT rightLittleProximal
                {
                  OFFSET -0.5346811737299992 -0.011214256288399227 -0.24363941305000003
                  CHANNELS 3 Yrotation Xrotation Zrotation
                  JOINT rightLittleIntermediate
                  {
                    OFFSET -0.21757715980000092 -0.011771559690000988 0.01201554387
                    CHANNELS 3 Yrotation Xrotation Zrotation
                    JOINT rightLittleDistal
                    {
                      OFFSET -0.1475201849000004 -0.00822055339600003 0.006082065407000015
                      CHANNELS 3 Yrotation Xrotation Zrotation
                      End Site
                      {
                        OFFSET -0.1475201849000004 -0.00822055339600003 0.006082065407000015
                      }
                    }
                  }
                }
                JOINT rightRingProximal
                {
                  OFFSET -0.5800810755299999 0.027657985680600072 -0.12066365025000003
                  CHANNELS 3 Yrotation Xrotation Zrotation
                  JOINT rightRingIntermediate
                  {
                    OFFSET -0.26166445029999974 -0.013623118409999302 0.011164098990000045
                    CHANNELS 3 Yrotation Xrotation Zrotation
                    JOINT rightRingDistal
                    {
                      OFFSET -0.17666387530000027 -0.009072900100000503 0.005668185599999959
                      CHANNELS 3 Yrotation Xrotation Zrotation
                      End Site
                      {
                        OFFSET -0.17666387530000027 -0.009072900100000503 0.005668185599999959
                      }
                    }
                  }
                }
                JOINT rightThumbProximal
                {
                  OFFSET -0.10997596379000074 -0.09577489355940072 0.16989765924999997
                  CHANNELS 3 Yrotation Xrotation Zrotation
                  JOINT rightThumbIntermediate
                  {
                    OFFSET -0.31036620999999986 -0.08229339117999834 0.15440884469999996
                    CHANNELS 3 Yrotation Xrotation Zrotation
                    JOINT rightThumbDistal
                    {
                      OFFSET -0.21631306399999906 -0.08825326400000111 0.018656797720000014
                      CHANNELS 3 Yrotation Xrotation Zrotation
                      End Site
                      {
                        OFFSET -0.21631306399999906 -0.08825326400000111 0.018656797720000014
                      }
                    }
                  }
                }
              }
            }
          }
        }
      }
    }
  }
}
MOTION
Frames: 6
Frame Time: 0.03333333333333333
-3.2392307508655165 -5.847226498139015 6.812222052675062 168.95823713670586 -0.009880110474753458 -0.011341676387030646 -4.773342121924237 -9.57134154000431 6.101283478045415 152.77052942346842 75.81870841470132 158.72051273225185 1.6990924575696715 58.979934850351384 9.660021721703218 0 0 0 -6.909889566323515 -9.712238273681365 11.58942137400924 -112.43005397992427 70.94485563332287 -130.44658871139714 -16.986310828536578 58.583708045329644 -19.177603132085896 0 0 0 -0.5006342929609581 -3.931893417701657 2.89261044129114 -1.2577781047401622 14.987947507848917 4.19475542374813 0 0 0 -35.066565476918704 -26.884094179396723 -1.7570524507085132 -26.19528485967784 24.53570706877529 -90.160735906529 -26.9109809510023 25.668859128575075 2.1969383938030598 -25.107488968906598 -3.0319817767818082 -19.93823450080587 0 0 0 0 0 0 0 0 0 0 0 0 0 0 0 0 0 0 0 0 0 0 0 0 0 0 0 0 0 0 0 0 0 0 0 0 0 0 0 0 0 0 0 0 0 0.00668913776465491 16.379532852388333 -0.3185485434829682 -0.024646940742339155 -32.277919383350955 -0.2579462709378181 0 0 0 0 0 0 0 0 0 -6.304715103168023 -15.18992859823243 8.023394954091241 30.459526789387162 -34.665789294120735 -11.436013519134086 74.14587095411895 26.500652201979104 -15.255281696937178 -4.525941753563112 -26.872456802018196 1.1358979990360698 0 0 0 0 0 0 0 0 0 0 0 0 0 0 0 0 0 0 0 0 0 0 0 0 0 0 0 0 0 0 0 0 0 0 0 0 0 0 0 0 0 0 0 0 0
-3.2023076235135326 -5.847226766531287 6.7874456885417125 168.95823713670586 -0.009880110474753458 -0.011341676387030646 -4.899965668289546 -9.245319419064463 6.361235923005882 152.72384897027575 75.84697781346169 158.67243944226243 1.2620206548632742 58.89623933365033 9.435089301158378 0 0 0 -7.264237945072308 -9.193576552786556 12.313540307224619 -110.24176945941032 70.43537390876948 -129.0992114210036 -16.986310828536578 58.583708045329644 -19.177603132085896 0 0 0 -0.5028893159892633 -3.9336627611564583 2.897262586919924 -1.2556718615746525 14.764612378628028 4.394092173985021 0 0 0 -35.04025114632016 -26.41210813460367 -1.2630281726207475 -26.226977823422164 24.535622602052133 -90.65054503866955 -27.481663071257035 25.683085866376704 2.126393706140531 -25.296127171965722 -2.9728239164629535 -19.859107028457316 0 0 0 0 0 0 0 0 0 0 0 0 0 0 0 0 0 0 0 0 0 0 0 0 0 0 0 0 0 0 0 0 0 0 0 0 0 0 0 0 0 0 0 0 0 0.006135830197970723 16.70457095628889 -0.34008934333951674 -0.027136827721881012 -31.962641188097788 -0.27475369293046675 0 0 0 0 0 0 0 0 0 -3.365609246900347 -12.896325997282023 6.978469281649637 31.207842977918204 -37.942259202600034 -12.939333694497353 74.0559811856358 27.10240035401397 -13.22069563310826 -4.2117440418619045 -26.896621157701656 0.5303553117636819 0 0 0 0 0 0 0 0 0 0 0 0 0 0 0 0 0 0 0 0 0 0 0 0 0 0 0 0 0 0 0 0 0 0 0 0 0 0 0 0 0 0 0 0 0
-3.128461637201836 -5.847226766531287 6.7378926918827435 168.95823713670586 -0.009880110474753458 -0.011341676387030646 -5.148370643343458 -8.591634652926325 6.878236634002971 152.62989468745712 75.90350092335828 158.57570028281071 0.39299382269037736 58.72620976372981 8.990590939087884 0 0 0 -7.951297449031031 -8.143541522165497 13.748641744234394 -106.13114750788353 69.36929142703552 -126.67374194704013 -16.986310828536578 58.583708045329644 -19.177603132085896 0 0 0 -0.5073992068836963 -3.9372027430293617 2.9065675379999023 -1.25387214367521 14.317938347543555 4.792126369775981 0 0 0 -34.97443697312409 -25.468963971387513 -0.2802957649425114 -26.290346443387893 24.53470473399199 -91.63008427985017 -28.62472786354164 25.709660635732735 1.9846455659384405 -25.673132595421333 -2.8537344062071055 -19.701456702264178 0 0 0 0 0 0 0 0 0 0 0 0 0 0 0 0 0 0 0 0 0 0 0 0 0 0 0 0 0 0 0 0 0 0 0 0 0 0 0 0 0 0 0 0 0 0.004640142041084916 17.354947798839 -0.3833128871715121 -0.032417002413892664 -31.332098288173473 -0.3082452635271627 0 0 0 0 0 0 0 0 0 2.1247492316211756 -8.483511591343913 4.508427188364383 33.18257659542118 -44.43768242441764 -16.36393096611288 74.16067446145512 27.39901260422931 -8.917458249575615 -3.582453907387897 -26.936056803520497 -0.6813717813265647 0 0 0 0 0 0 0 0 0 0 0 0 0 0 0 0 0 0 0 0 0 0 0 0 0 0 0 0 0 0 0 0 0 0 0 0 0 0 0 0 0 0 0 0 0
-3.091538644045988 -5.847226766531287 6.713116327749394 168.95823713670586 -0.009880110474753458 -0.011341676387030646 -5.2701564026563705 -8.264022723427729 7.135288332302765 152.58263937422646 75.93174053715606 158.5270518336134 -0.03893155676651894 58.63990133355146 8.771047019350329 0 0 0 -8.283910041417482 -7.612656625294617 14.459477588005775 -104.20127986953842 68.81576916197689 -125.58761713019679 -16.986310828536578 58.583708045329644 -19.177603132085896 0 0 0 -0.5096550377363342 -3.9389712419683005 2.9112199563519368 -1.2541729477090697 14.094620848761485 4.990826382588426 0 0 0 -34.93504872620342 -24.99800907127104 0.2084439056748381 -26.322018403800357 24.533882600200794 -92.11974742000771 -29.197000487240995 25.722006353978795 1.913468686892543 -25.86148349504328 -2.7938024957980443 -19.622931484035696 0 0 0 0 0 0 0 0 0 0 0 0 0 0 0 0 0 0 0 0 0 0 0 0 0 0 0 0 0 0 0 0 0 0 0 0 0 0 0 0 0 0 0 0 0 0.003697366673473762 17.680260221640772 -0.4049973227717086 -0.03520418093294087 -31.016854377465414 -0.3249311453948117 0 0 0 0 0 0 0 0 0 4.775271628220215 -6.196237131639775 3.4453014559781887 34.46278330933535 -47.62297439431658 -18.337924225292173 74.22292945691026 27.545511155358952 -6.746056534122293 -3.2675031892357875 -26.951317327692106 -1.287379018234508 0 0 0 0 0 0 0 0 0 0 0 0 0 0 0 0 0 0 0 0 0 0 0 0 0 0 0 0 0 0 0 0 0 0 0 0 0 0 0 0 0 0 0 0 0
-3.05461565089014 -5.847226766531287 6.688339963616045 168.95823713670586 -0.009880110474753458 -0.011341676387030646 -5.390358009329154 -7.935874926969309 7.391426466408204 152.53518972410313 75.95997949446964 158.4782130596583 -0.46915020220896364 58.55273870510307 8.5533006647924 0 0 0 -8.609463447202442 -7.077736551338119 15.166342103316069 -102.3474155761734 68.24974663793853 -124.57903434734678 -16.986310828536578 58.583708045329644 -19.177603132085896 0 0 0 -0.5119110616870977 -3.9407397446658985 2.915872781980316 -1.255271293186409 13.871305344769468 5.189334805086988 0 0 0 -34.89139591614567 -24.52737516950131 0.6956903446134288 -26.353681900264323 24.532810831128984 -92.60940646843245 -29.769350714756243 25.733708867139825 1.842151305467089 -26.049742679795386 -2.7336129468101125 -19.544610158149357 0 0 0 0 0 0 0 0 0 0 0 0 0 0 0 0 0 0 0 0 0 0 0 0 0 0 0 0 0 0 0 0 0 0 0 0 0 0 0 0 0 0 0 0 0 0.0026234080817050844 18.005573570808938 -0.4267270841601403 -0.038088980770038756 -30.701609311383155 -0.341580080269247 0 0 0 0 0 0 0 0 0 7.3734488796694135 -3.8630913175696606 2.493047943837111 36.00029359590365 -50.773708738774744 -20.554494138760887 74.29149130475156 27.689808319956306 -4.571592296847117 -2.9523506568353852 -26.963606549453807 -1.8935452593611697 0 0 0 0 0 0 0 0 0 0 0 0 0 0 0 0 0 0 0 0 0 0 0 0 0 0 0 0 0 0 0 0 0 0 0 0 0 0 0 0 0 0 0 0 0
-2.980769664578443 -5.847226766531287 6.638787503741618 168.95823713670586 -0.009880110474753458 -0.011341676387030646 -5.625981750923295 -7.278186068332783 7.900899105511481 152.43969936283548 76.01641305328813 158.37993959635085 -1.3243552762331 58.37590153648141 8.123263272195745 0 0 0 -9.23871825391714 -5.997585174944003 16.566830077132387 -98.85706755239451 67.08674670492042 -122.78086305570822 -16.986310828536578 58.583708045329644 -19.177603132085896 0 0 0 -0.5164226874644001 -3.9442776171445875 2.925176783689756 -1.2598507171370439 13.424750144370801 5.585751363713684 0 0 0 -34.791549843576476 -23.58789148186804 1.6653296237546005 -26.41693911215747 24.52993155287343 -93.58835883624532 -30.915305172185228 25.755210073050563 1.698995736625367 -26.42597165783218 -2.6124759928929615 -19.388589623753216 0 0 0 0 0 0 0 0 0 0 0 0 0 0 0 0 0 0 0 0 0 0 0 0 0 0 0 0 0 0 0 0 0 0 0 0 0 0 0 0 0 0 0 0 0 0.00007704600856643567 18.65641280395191 -0.47034436433162213 -0.0441483082153641 -30.071231765126342 -0.37476843389452785 0 0 0 0 0 0 0 0 0 12.127890898770012 0.5912909006423147 0.14052439986862333 41.80814188700948 -56.661387694438744 -27.25097568653127 74.44794608131475 27.97213077481675 -0.19492616234036128 -2.3218954118840878 -26.979261684244484 -3.1056746020941777 0 0 0 0 0 0 0 0 0 0 0 0 0 0 0 0 0 0 0 0 0 0 0 0 0 0 0 0 0 0 0 0 0 0 0 0 0 0 0 0 0 0 0 0 0
